<svg id="Capa_1" data-name="Capa 1" xmlns="http://www.w3.org/2000/svg" width="40" height="40" viewBox="0 0 40 40"><defs><style>.cls-1,.cls-2{fill:#fff;}.cls-1{fill-rule:evenodd;}</style></defs><title>ic_Mod</title><path class="cls-1" d="M12.39,8.77a1.29,1.29,0,0,1,1.17,1.39v5a1.3,1.3,0,0,1-1.17,1.39,1.3,1.3,0,0,1-1.17-1.39v-5A1.29,1.29,0,0,1,12.39,8.77Z"/><path class="cls-1" d="M15.66,4.88a1.29,1.29,0,0,1,1.18,1.39v5a1.29,1.29,0,0,1-1.18,1.39,1.29,1.29,0,0,1-1.17-1.39v-5A1.29,1.29,0,0,1,15.66,4.88Z"/><path class="cls-1" d="M19.87,8.21A1.29,1.29,0,0,1,21,9.6v5A1.29,1.29,0,0,1,19.87,16a1.29,1.29,0,0,1-1.17-1.39v-5A1.29,1.29,0,0,1,19.87,8.21Z"/><path class="cls-1" d="M24.55,4.88a1.29,1.29,0,0,1,1.17,1.39v5a1.19,1.19,0,1,1-2.34,0v-5A1.29,1.29,0,0,1,24.55,4.88Z"/><path class="cls-1" d="M29.69,9.32a1.29,1.29,0,0,1,1.18,1.39v5a1.19,1.19,0,1,1-2.34,0v-5A1.29,1.29,0,0,1,29.69,9.32Z"/><path class="cls-1" d="M25.49,16a1.29,1.29,0,0,1,1.17,1.39v5a1.19,1.19,0,1,1-2.34,0v-5A1.29,1.29,0,0,1,25.49,16Z"/><path class="cls-1" d="M20.34,19.31a1.29,1.29,0,0,1,1.17,1.39v5a1.29,1.29,0,0,1-1.17,1.39,1.29,1.29,0,0,1-1.17-1.39v-5A1.29,1.29,0,0,1,20.34,19.31Z"/><path class="cls-1" d="M16.13,17.64A1.3,1.3,0,0,1,17.3,19v5a1.29,1.29,0,0,1-1.18,1.39A1.29,1.29,0,0,1,15,24V19A1.3,1.3,0,0,1,16.13,17.64Z"/><path class="cls-1" d="M16.13,29.85a1.3,1.3,0,0,1,1.18,1.39v5a1.29,1.29,0,0,1-1.18,1.39A1.29,1.29,0,0,1,15,36.24v-5A1.3,1.3,0,0,1,16.13,29.85Z"/><path class="cls-1" d="M11.69,20.42a1,1,0,0,1,.93,1.09v3.92a1,1,0,0,1-.93,1.09,1,1,0,0,1-.93-1.09V21.52A1,1,0,0,1,11.69,20.42Z"/><path class="cls-1" d="M23.14,27.08a1.29,1.29,0,0,1,1.18,1.39v5a1.29,1.29,0,0,1-1.18,1.39A1.29,1.29,0,0,1,22,33.46v-5A1.29,1.29,0,0,1,23.14,27.08Z"/><rect class="cls-2" x="4.05" y="4.61" width="31.76" height="1.39"/></svg>