<?xml version="1.0" encoding="utf-8"?>
<!-- Generator: Adobe Illustrator 16.0.0, SVG Export Plug-In . SVG Version: 6.00 Build 0)  -->
<!DOCTYPE svg PUBLIC "-//W3C//DTD SVG 1.1//EN" "http://www.w3.org/Graphics/SVG/1.1/DTD/svg11.dtd">
<svg version="1.1" id="Capa_1" xmlns="http://www.w3.org/2000/svg" xmlns:xlink="http://www.w3.org/1999/xlink" x="0px" y="0px"
	 width="40px" height="40px" viewBox="0 0 40 40" enable-background="new 0 0 40 40" xml:space="preserve">
<g>
	<g>
		<path fill="#FFFFFF" d="M27.372,31.423c-0.281-0.101-0.507-0.303-0.636-0.572l-0.616-1.294c-0.847,0.128-1.722,0.125-2.564-0.009
			l-0.628,1.287c-0.266,0.539-0.949,0.778-1.496,0.515l-2.224-1.084c-0.555-0.271-0.787-0.942-0.516-1.498l0.615-1.26
			c-0.651-0.59-1.199-1.271-1.633-2.029l-1.345,0.3c-0.078,0.017-0.158,0.024-0.237,0.024l0,0c-0.521,0-0.982-0.369-1.095-0.878
			l-0.537-2.416c-0.063-0.289-0.007-0.598,0.15-0.841c0.158-0.249,0.414-0.429,0.701-0.493l1.28-0.283
			c0.05-0.907,0.246-1.787,0.583-2.624l-0.989-0.801c-0.233-0.188-0.378-0.453-0.41-0.751c-0.031-0.298,0.056-0.591,0.245-0.823
			l1.557-1.926c0.19-0.23,0.458-0.376,0.75-0.405c0.293-0.033,0.589,0.056,0.825,0.243l0.95,0.771
			c0.74-0.522,1.549-0.915,2.414-1.169V12.2c0-0.617,0.503-1.119,1.12-1.119h2.474c0.617,0,1.118,0.502,1.118,1.119v1.208
			c0.886,0.262,1.715,0.668,2.471,1.212l0.963-0.767c0.229-0.18,0.514-0.268,0.821-0.234c0.296,0.033,0.562,0.181,0.75,0.416
			l1.54,1.937c0.187,0.234,0.271,0.527,0.236,0.825c-0.034,0.297-0.183,0.563-0.416,0.747l-1,0.796
			c0.33,0.842,0.518,1.723,0.56,2.625l1.28,0.296c0.292,0.066,0.54,0.243,0.698,0.496c0.159,0.253,0.209,0.554,0.143,0.846
			l-0.557,2.409c-0.118,0.511-0.566,0.868-1.09,0.868c-0.085,0-0.17-0.009-0.252-0.028l-1.343-0.31
			c-0.441,0.755-0.993,1.43-1.647,2.012l0.604,1.268c0.267,0.556,0.03,1.225-0.527,1.493l-2.231,1.064
			c-0.148,0.071-0.315,0.109-0.483,0.109C27.621,31.487,27.496,31.466,27.372,31.423z M33.568,25.012
			c0.137,0.031,0.277-0.057,0.309-0.194l0.557-2.409c0.016-0.067,0.005-0.138-0.032-0.195c-0.036-0.059-0.093-0.099-0.161-0.114
			l-1.938-0.447l-0.002-0.341c-0.006-1.016-0.217-2.003-0.625-2.934l-0.133-0.304l1.515-1.205c0.054-0.042,0.088-0.103,0.096-0.172
			c0.008-0.068-0.012-0.136-0.055-0.189l-1.539-1.936c-0.044-0.055-0.105-0.09-0.201-0.099c-0.061,0-0.118,0.02-0.163,0.056
			l-1.486,1.184l-0.268-0.21c-0.823-0.643-1.748-1.097-2.75-1.349l-0.324-0.082V12.2c0-0.143-0.116-0.258-0.258-0.258h-2.474
			c-0.143,0-0.259,0.116-0.259,0.258v1.872l-0.326,0.082c-0.982,0.246-1.891,0.687-2.699,1.308l-0.27,0.207l-1.47-1.192
			c-0.048-0.038-0.107-0.058-0.194-0.058c-0.068,0.007-0.13,0.041-0.173,0.093l-1.556,1.924c-0.043,0.054-0.064,0.122-0.057,0.19
			s0.041,0.129,0.094,0.172l1.5,1.214l-0.136,0.303c-0.415,0.924-0.634,1.91-0.649,2.933l-0.006,0.341l-1.938,0.429
			c-0.065,0.015-0.124,0.056-0.162,0.116c-0.036,0.056-0.048,0.127-0.034,0.192l0.537,2.414c0.03,0.136,0.186,0.225,0.306,0.198
			l1.981-0.44l0.152,0.293c0.456,0.876,1.074,1.644,1.837,2.28l0.258,0.217l-0.908,1.859c-0.063,0.128-0.009,0.283,0.12,0.347
			l2.221,1.083c0.128,0.061,0.287,0.004,0.348-0.118l0.916-1.879l0.326,0.065c0.94,0.19,1.941,0.194,2.891,0.011l0.326-0.063
			l0.9,1.888c0.029,0.063,0.082,0.109,0.143,0.132c0.067,0.022,0.142,0.019,0.201-0.01l2.232-1.064
			c0.063-0.03,0.11-0.083,0.134-0.148c0.022-0.064,0.019-0.134-0.012-0.197l-0.892-1.87l0.261-0.214
			c0.766-0.628,1.389-1.389,1.853-2.261l0.154-0.291L33.568,25.012z M21.404,21.36c0-1.911,1.555-3.466,3.466-3.466
			s3.466,1.555,3.466,3.466c0,1.91-1.555,3.465-3.466,3.465S21.404,23.271,21.404,21.36z M22.266,21.36
			c0,1.436,1.168,2.604,2.604,2.604s2.604-1.168,2.604-2.604c0-1.437-1.168-2.605-2.604-2.605S22.266,19.924,22.266,21.36z"/>
	</g>
	<g>
		<path fill="#FFFFFF" d="M13.613,14.812l-0.201-0.421c-0.42,0.054-0.85,0.053-1.267-0.004l-0.203,0.416
			c-0.235,0.485-0.849,0.701-1.34,0.462l-0.831-0.405c-0.239-0.118-0.418-0.321-0.506-0.573c-0.086-0.249-0.068-0.528,0.048-0.765
			l0.196-0.402c-0.314-0.297-0.584-0.634-0.808-1.005l-0.425,0.095c-0.526,0.116-1.076-0.237-1.192-0.761l-0.2-0.902
			c-0.117-0.539,0.225-1.074,0.762-1.193l0.385-0.085c0.035-0.449,0.132-0.886,0.291-1.304L8.028,7.727
			C7.823,7.56,7.69,7.314,7.664,7.056C7.634,6.79,7.711,6.528,7.882,6.318l0.58-0.715C8.795,5.19,9.453,5.118,9.871,5.454
			l0.268,0.218c0.374-0.251,0.775-0.445,1.199-0.581V4.755c0-0.553,0.449-1.002,1-1.002h0.924c0.551,0,1,0.45,1,1.002v0.337
			c0.438,0.141,0.851,0.343,1.232,0.604l0.273-0.218c0.417-0.33,1.072-0.256,1.407,0.162l0.572,0.721
			C17.912,6.567,17.99,6.835,17.96,7.1c-0.032,0.266-0.164,0.503-0.372,0.669l-0.296,0.236c0.153,0.42,0.246,0.856,0.278,1.304
			l0.384,0.089c0.259,0.058,0.487,0.221,0.625,0.444c0.142,0.226,0.188,0.494,0.127,0.757L18.5,11.5
			c-0.123,0.531-0.669,0.874-1.202,0.75l-0.422-0.099c-0.227,0.369-0.499,0.702-0.815,0.996l0.195,0.408
			c0.112,0.242,0.125,0.512,0.039,0.761c-0.088,0.25-0.276,0.459-0.514,0.57l-0.831,0.396c-0.138,0.066-0.284,0.1-0.434,0.1
			C14.131,15.382,13.777,15.157,13.613,14.812z M17.472,11.499c0.124,0.03,0.25-0.052,0.278-0.173l0.208-0.898
			c0.014-0.061,0.003-0.123-0.03-0.177c-0.032-0.051-0.083-0.087-0.144-0.101l-0.969-0.226L16.813,9.62
			c-0.004-0.55-0.118-1.083-0.336-1.584l-0.119-0.271l0.751-0.598c0.049-0.039,0.079-0.095,0.086-0.156
			c0.007-0.06-0.011-0.122-0.05-0.17l-0.572-0.72c-0.045-0.056-0.111-0.088-0.183-0.088c-0.037,0-0.091,0.009-0.143,0.05
			l-0.74,0.589l-0.239-0.187c-0.444-0.347-0.944-0.592-1.485-0.729l-0.291-0.074V4.755c0-0.128-0.104-0.232-0.23-0.232h-0.924
			c-0.127,0-0.23,0.104-0.23,0.232v0.927l-0.292,0.073c-0.527,0.132-1.018,0.37-1.459,0.707l-0.241,0.185l-0.73-0.594
			C9.235,5.931,9.129,6.003,9.06,6.088L8.479,6.804C8.44,6.852,8.423,6.911,8.43,6.975c0.006,0.06,0.036,0.115,0.084,0.153
			L9.26,7.734L9.138,8.004C8.913,8.501,8.795,9.034,8.787,9.586L8.782,9.89l-0.97,0.215c-0.125,0.027-0.204,0.152-0.176,0.276
			l0.2,0.899c0.026,0.122,0.158,0.2,0.274,0.177l0.991-0.22l0.137,0.262c0.247,0.474,0.581,0.888,0.992,1.232l0.231,0.193
			l-0.456,0.935c-0.027,0.056-0.032,0.119-0.013,0.174c0.021,0.06,0.063,0.107,0.118,0.135l0.828,0.404
			c0.116,0.056,0.255,0.006,0.311-0.106l0.459-0.943L12,13.581c0.506,0.103,1.049,0.104,1.562,0.006l0.292-0.056l0.454,0.949
			c0.068,0.143,0.205,0.157,0.309,0.107l0.834-0.398c0.054-0.025,0.096-0.072,0.116-0.13c0.021-0.058,0.017-0.122-0.008-0.177
			l-0.449-0.94l0.232-0.191c0.414-0.339,0.75-0.75,1.002-1.221l0.139-0.261L17.472,11.499z M10.715,9.648
			c0-1.149,0.935-2.084,2.083-2.084c1.148,0,2.082,0.935,2.082,2.084c0,1.148-0.934,2.082-2.082,2.082
			C11.65,11.73,10.715,10.796,10.715,9.648z M11.485,9.648c0,0.723,0.59,1.312,1.313,1.312c0.723,0,1.312-0.589,1.312-1.312
			c0-0.725-0.588-1.313-1.312-1.313C12.075,8.334,11.485,8.923,11.485,9.648z"/>
	</g>
	<g>
		<path fill="#FFFFFF" d="M11.015,23.445l-0.137-0.288c-0.289,0.037-0.583,0.035-0.868-0.004L9.87,23.44
			c-0.16,0.327-0.589,0.476-0.916,0.314l-0.569-0.276c-0.165-0.081-0.288-0.221-0.347-0.394c-0.059-0.174-0.048-0.359,0.032-0.522
			l0.134-0.275C7.99,22.084,7.805,21.854,7.652,21.6l-0.291,0.065c-0.048,0.01-0.097,0.016-0.146,0.016l0,0
			c-0.131,0-0.259-0.037-0.371-0.108c-0.151-0.097-0.26-0.253-0.3-0.43l-0.136-0.615c-0.041-0.179-0.008-0.362,0.09-0.518
			c0.099-0.154,0.251-0.262,0.43-0.301l0.264-0.059c0.024-0.308,0.091-0.605,0.199-0.893l-0.2-0.162
			c-0.141-0.113-0.232-0.282-0.25-0.46c-0.02-0.179,0.035-0.363,0.149-0.505l0.397-0.491c0.229-0.282,0.683-0.329,0.964-0.101
			l0.185,0.149c0.254-0.172,0.529-0.305,0.821-0.397V16.56c0-0.378,0.308-0.686,0.686-0.686h0.631c0.378,0,0.686,0.308,0.686,0.686
			v0.231c0.3,0.096,0.583,0.234,0.843,0.414l0.188-0.149c0.141-0.111,0.312-0.166,0.505-0.145c0.18,0.021,0.347,0.114,0.458,0.255
			l0.393,0.495c0.114,0.142,0.166,0.32,0.145,0.503s-0.111,0.346-0.255,0.461l-0.202,0.16c0.105,0.289,0.169,0.587,0.19,0.894
			l0.266,0.062c0.175,0.04,0.33,0.151,0.427,0.305c0.096,0.154,0.127,0.343,0.086,0.517l-0.143,0.617
			c-0.072,0.312-0.347,0.529-0.667,0.529c-0.052,0-0.104-0.006-0.154-0.018l-0.291-0.066c-0.155,0.251-0.342,0.48-0.559,0.682
			l0.132,0.276c0.078,0.163,0.088,0.354,0.027,0.526c-0.062,0.172-0.187,0.311-0.351,0.388l-0.568,0.271
			c-0.094,0.045-0.193,0.068-0.296,0.068C11.37,23.836,11.127,23.683,11.015,23.445z M13.657,21.177
			c0.084,0.021,0.17-0.036,0.189-0.117l0.143-0.617c0.01-0.04,0.002-0.083-0.019-0.117c-0.023-0.036-0.059-0.063-0.099-0.071
			l-0.666-0.153l-0.001-0.209c-0.002-0.375-0.08-0.74-0.23-1.084l-0.081-0.186l0.515-0.41c0.034-0.026,0.055-0.064,0.059-0.107
			c0.005-0.042-0.006-0.082-0.033-0.115l-0.394-0.495c-0.026-0.033-0.064-0.054-0.123-0.06c-0.036,0-0.07,0.012-0.099,0.035
			l-0.507,0.402l-0.164-0.128c-0.305-0.237-0.646-0.405-1.016-0.499l-0.199-0.05V16.56c0-0.087-0.071-0.158-0.159-0.158h-0.631
			c-0.087,0-0.159,0.071-0.159,0.158v0.636l-0.2,0.05c-0.364,0.092-0.699,0.254-0.997,0.483l-0.165,0.128l-0.503-0.407
			c-0.103-0.084-0.176-0.034-0.222,0.022l-0.398,0.491c-0.026,0.032-0.039,0.074-0.034,0.117c0.004,0.041,0.024,0.079,0.057,0.105
			L8.033,18.6l-0.084,0.186c-0.154,0.341-0.234,0.705-0.24,1.082l-0.003,0.209l-0.665,0.147C7,20.232,6.966,20.257,6.943,20.292
			c-0.022,0.036-0.029,0.078-0.02,0.12l0.135,0.615c0.01,0.042,0.035,0.079,0.07,0.101c0.026,0.017,0.056,0.025,0.086,0.025l0,0
			c0.011,0,0.023-0.001,0.032-0.004l0.68-0.151l0.093,0.18c0.17,0.326,0.397,0.609,0.678,0.843l0.158,0.133l-0.312,0.64
			c-0.019,0.038-0.021,0.081-0.007,0.122c0.013,0.039,0.043,0.072,0.08,0.091l0.568,0.276c0.077,0.037,0.173,0.003,0.21-0.073
			l0.316-0.647l0.201,0.041c0.344,0.07,0.715,0.072,1.068,0.005l0.199-0.038l0.311,0.649c0.036,0.075,0.128,0.113,0.21,0.074
			l0.57-0.272c0.038-0.019,0.067-0.051,0.081-0.089c0.014-0.04,0.011-0.084-0.007-0.122l-0.308-0.643l0.16-0.132
			c0.283-0.232,0.514-0.514,0.686-0.836l0.095-0.178L13.657,21.177z M9.03,19.91c0-0.786,0.639-1.426,1.425-1.426
			c0.787,0,1.426,0.64,1.426,1.426s-0.64,1.426-1.426,1.426C9.669,21.336,9.03,20.696,9.03,19.91z M9.558,19.91
			c0,0.495,0.403,0.898,0.898,0.898c0.496,0,0.899-0.403,0.899-0.898s-0.404-0.898-0.899-0.898
			C9.96,19.012,9.558,19.415,9.558,19.91z"/>
	</g>
</g>
</svg>
