<svg id="Capa_1" data-name="Capa 1" xmlns="http://www.w3.org/2000/svg" width="40" height="40" viewBox="0 0 40 40"><defs><style>.cls-1{fill:#fff;fill-rule:evenodd;}</style></defs><title>ic_Mod</title><path class="cls-1" d="M25.81,27.81a8.35,8.35,0,0,1-8.22,8.33,8.29,8.29,0,0,1-8.22-8.33c0-3.65,4.89-9.47,8.22-12.55C20.81,18.34,25.81,24.16,25.81,27.81ZM20.26,16.75c2.22,2.51,4.67,5.36,5.66,8.1a7.41,7.41,0,0,1,.78,3.08,9.11,9.11,0,1,1-18.21-.12c0-3.42,3.56-8.1,6.22-11,.33-.45,2.11-2.51,2.88-2.51S19.59,15.95,20.26,16.75Z"/><path class="cls-1" d="M30.63,13.67a4.49,4.49,0,0,1-4.44,4.44,4.4,4.4,0,0,1-4.33-4.44c0-2.18,2.34-4.91,4.33-6.85C28.18,8.41,30.63,11.72,30.63,13.67ZM28.18,7.5c1.78,1.95,3.34,4.11,3.34,6.17A5.44,5.44,0,0,1,26.19,19,5.31,5.31,0,0,1,21,13.55c0-1.25-.11-.57.55-2.28,0-.23,3.34-5.37,4.67-5.37C27.07,5.91,27.41,6.59,28.18,7.5Z"/><path class="cls-1" d="M19.15,8.18A2.93,2.93,0,0,1,16.25,11a2.88,2.88,0,0,1-2.88-2.86c0-1.25,1.55-3.31,2.88-4.33C17.36,4.87,19.15,6.93,19.15,8.18Zm.89,0a3.78,3.78,0,0,1-7.55,0c0-.68,2-5.25,3.77-5.25S20,7.5,20,8.18Z"/></svg>