<svg id="Capa_1" data-name="Capa 1" xmlns="http://www.w3.org/2000/svg" width="40" height="40" viewBox="0 0 40 40"><defs><style>.cls-1{fill:#fff;}</style></defs><title>ic_Mod4</title><path class="cls-1" d="M20.73,26.39H16.92a2.5,2.5,0,0,0,0,5h3.81a2.5,2.5,0,1,0,0-5Zm0,3.81H16.92a1.31,1.31,0,0,1,0-2.62h3.81a1.31,1.31,0,1,1,0,2.62Z"/><path class="cls-1" d="M31.69,23.88,34,21.6a.6.6,0,0,0-.26-1l-4.12-1.12V11.74a.6.6,0,0,0-.6-.6H8.66a.6.6,0,0,0-.6.6V24.45a.6.6,0,0,0,.6.6H24.83l.95,3.48a.6.6,0,0,0,1,.26l2.27-2.27,4.07,4.07a.6.6,0,0,0,.84,0l1.8-1.8a.6.6,0,0,0,0-.84Zm-22.44,0V12.34H28.4v6.82l-4.58-1.25a.6.6,0,0,0-.73.73l1.42,5.21Zm24.3,5.47-4.07-4.07a.6.6,0,0,0-.84,0l-2,2-2.15-7.89,7.89,2.15-2,2a.6.6,0,0,0,0,.84l4.07,4.07Z"/><path class="cls-1" d="M8.66,9.79H21.37a.6.6,0,0,0,0-1.19H8.66a.6.6,0,0,0,0,1.19Z"/><path class="cls-1" d="M23.27,9.79h6.35a.6.6,0,1,0,0-1.19H23.27a.6.6,0,1,0,0,1.19Z"/><path class="cls-1" d="M13.82,15.81h6.35a.6.6,0,1,0,0-1.19H13.82a.6.6,0,1,0,0,1.19Z"/><path class="cls-1" d="M13.82,18.21h6.35a.6.6,0,1,0,0-1.19H13.82a.6.6,0,1,0,0,1.19Z"/><circle class="cls-1" cx="11.25" cy="15.21" r="0.6"/><circle class="cls-1" cx="11.25" cy="17.62" r="0.6"/><path class="cls-1" d="M13.82,20.84h6.35a.6.6,0,1,0,0-1.19H13.82a.6.6,0,1,0,0,1.19Z"/><circle class="cls-1" cx="11.25" cy="20.24" r="0.6"/></svg>