<svg id="Capa_1" data-name="Capa 1" xmlns="http://www.w3.org/2000/svg" width="40" height="40" viewBox="0 0 40 40"><defs><style>.cls-1{fill:#fff;}</style></defs><title>ic_Mod0</title><path class="cls-1" d="M30,4.12V22.57A7.2,7.2,0,0,0,28.8,21.1V5.34H9.21V23h7.85a5.53,5.53,0,0,0-.5,1.21H8V4.12Z"/><path class="cls-1" d="M30.36,26.41a6.72,6.72,0,1,0-6.72,6.72,6.72,6.72,0,0,0,6.72-6.72Zm-6.72,5a5,5,0,1,1,5-5,5,5,0,0,1-5,5Zm0,0"/><path class="cls-1" d="M34.35,34.75l-4.11-4.11A7.91,7.91,0,0,1,27.86,33L32,37.13a1.68,1.68,0,1,0,2.38-2.38Zm0,0"/><path class="cls-1" d="M12.38,12.81l5-2.41v.94l-3.95,1.84v0L17.36,15V16l-5-2.41Z"/><path class="cls-1" d="M18.08,16.4l2.56-7.61h.9L19,16.4Z"/><path class="cls-1" d="M27.15,13.58l-5,2.39V15l4-1.85v0l-4-1.85v-.93l5,2.39Z"/><path class="cls-1" d="M27.16,24.21H20.1A3.92,3.92,0,0,1,21.26,23H26A3.87,3.87,0,0,1,27.16,24.21Z"/></svg>