<?xml version="1.0" encoding="utf-8"?>
<!-- Generator: Adobe Illustrator 16.0.0, SVG Export Plug-In . SVG Version: 6.00 Build 0)  -->
<!DOCTYPE svg PUBLIC "-//W3C//DTD SVG 1.1//EN" "http://www.w3.org/Graphics/SVG/1.1/DTD/svg11.dtd">
<svg version="1.1" id="Capa_1" xmlns="http://www.w3.org/2000/svg" xmlns:xlink="http://www.w3.org/1999/xlink" x="0px" y="0px"
	 width="40px" height="40px" viewBox="0 0 40 40" enable-background="new 0 0 40 40" xml:space="preserve">
<g>
	<g>
		<path fill="#FFFFFF" stroke="#FFFFFF" stroke-width="0.5" stroke-miterlimit="10" d="M37.85,16.847v10.657
			c0,1.648-1.34,2.993-2.988,2.993h-3.063v5.04c0,0.207-0.127,0.395-0.32,0.471c-0.06,0.021-0.121,0.03-0.181,0.03
			c-0.142,0-0.278-0.056-0.374-0.167l-4.89-5.374h-6.36c-1.643,0-2.988-1.345-2.988-2.993v-5.582h1.011v5.582
			c0,1.092,0.89,1.982,1.977,1.982h6.583c0.142,0,0.272,0.06,0.369,0.166l4.166,4.581v-4.241c0-0.278,0.223-0.506,0.506-0.506h3.563
			c1.093,0,1.977-0.891,1.977-1.982V16.847c0-1.092-0.884-1.982-1.977-1.982h-7.118v-1.006h7.118
			C36.51,13.858,37.85,15.198,37.85,16.847z"/>
		<path fill="#FFFFFF" stroke="#FFFFFF" stroke-width="0.5" stroke-miterlimit="10" d="M22.234,21.931
			c-0.277,0-0.504,0.228-0.504,0.504c0,0.279,0.227,0.505,0.504,0.505H31.8c0.281,0,0.504-0.226,0.504-0.505
			c0-0.276-0.223-0.504-0.504-0.504H22.234L22.234,21.931z M22.234,21.931L22.234,21.931z"/>
		<path fill="#FFFFFF" stroke="#FFFFFF" stroke-width="0.5" stroke-miterlimit="10" d="M22.234,24.955
			c-0.277,0-0.504,0.228-0.504,0.506s0.227,0.503,0.504,0.503H31.8c0.281,0,0.504-0.225,0.504-0.503s-0.223-0.506-0.504-0.506
			H22.234L22.234,24.955z M22.234,24.955L22.234,24.955z"/>
	</g>
	<g>
		<path fill="#FFFFFF" stroke="#FFFFFF" stroke-width="0.5" stroke-miterlimit="10" d="M26.266,6.95c0-1.34-0.889-2.472-2.104-2.852
			c-0.096-0.03-0.187-0.056-0.287-0.076c-0.193-0.04-0.395-0.061-0.597-0.061H6.068c-1.648,0-2.988,1.34-2.988,2.988v10.657
			c0,1.648,1.34,2.993,2.988,2.993h3.064v5.041c0,0.208,0.126,0.394,0.318,0.47c0.061,0.02,0.122,0.031,0.182,0.031
			c0.142,0,0.278-0.057,0.375-0.167l4.889-5.375h8.383c1.644,0,2.987-1.345,2.987-2.993V6.95z M4.091,6.95
			c0-1.092,0.885-1.982,1.977-1.982h17.21c0.403,0,0.788,0.126,1.103,0.339c0.525,0.358,0.873,0.961,0.873,1.643v10.657
			c0,1.092-0.889,1.982-1.976,1.982h-8.605c-0.142,0-0.273,0.061-0.369,0.167l-4.166,4.58v-4.241c0-0.279-0.223-0.506-0.506-0.506
			H6.068c-1.092,0-1.977-0.891-1.977-1.982V6.95z"/>
		<path fill="#FFFFFF" stroke="#FFFFFF" stroke-width="0.5" stroke-miterlimit="10" d="M9.131,10.019h5.035
			c0.278,0,0.505-0.226,0.505-0.504c0-0.279-0.227-0.505-0.505-0.505H9.131c-0.281,0-0.505,0.226-0.505,0.505
			C8.626,9.792,8.85,10.019,9.131,10.019L9.131,10.019z M9.131,10.019"/>
		<path fill="#FFFFFF" stroke="#FFFFFF" stroke-width="0.5" stroke-miterlimit="10" d="M20.719,12.035H9.131
			c-0.281,0-0.505,0.227-0.505,0.504c0,0.279,0.224,0.505,0.505,0.505h11.588c0.277,0,0.504-0.226,0.504-0.505
			C21.223,12.262,20.996,12.035,20.719,12.035L20.719,12.035z M20.719,12.035"/>
		<path fill="#FFFFFF" stroke="#FFFFFF" stroke-width="0.5" stroke-miterlimit="10" d="M20.719,15.059H9.131
			c-0.281,0-0.505,0.228-0.505,0.506s0.224,0.503,0.505,0.503h11.588c0.277,0,0.504-0.225,0.504-0.503S20.996,15.059,20.719,15.059
			L20.719,15.059z M20.719,15.059"/>
	</g>
</g>
</svg>
