<svg id="Capa_1" data-name="Capa 1" xmlns="http://www.w3.org/2000/svg" width="40" height="40" viewBox="0 0 40 40"><defs><style>.cls-1{fill:#fff;}</style></defs><title>ic_Mod</title><path class="cls-1" d="M36.46,33.22h0c-2.19-.07-2.76-1.91-3.21-3.39s-.85-2.56-2.18-2.61-1.71.9-2.24,2.44-1.13,3.26-3.34,3.19-2.75-1.91-3.21-3.39-.85-2.56-2.18-2.6-1.72.9-2.25,2.44-1.14,3.27-3.34,3.19-2.76-1.91-3.21-3.39-.85-2.56-2.18-2.6-1.71.9-2.25,2.44-1.11,3.27-3.34,3.2A.56.56,0,0,1,3,31.57.55.55,0,0,1,3.55,31c1.34,0,1.72-.9,2.25-2.45s1.12-3.27,3.34-3.19,2.76,1.91,3.21,3.39.85,2.56,2.18,2.6,1.71-.9,2.25-2.44,1.13-3.26,3.34-3.19,2.75,1.91,3.21,3.39.85,2.56,2.18,2.6,1.72-.9,2.25-2.44S28.9,26,31.09,26.11,33.85,28,34.31,29.5s.85,2.56,2.17,2.6a.56.56,0,0,1,0,1.12Z"/><path class="cls-1" d="M36.46,25h0c-2.19-.07-2.76-1.91-3.21-3.39s-.85-2.56-2.18-2.61-1.71.9-2.24,2.44-1.13,3.27-3.34,3.19-2.75-1.91-3.21-3.39-.85-2.56-2.18-2.6-1.72.9-2.25,2.44-1.14,3.26-3.34,3.19-2.76-1.91-3.21-3.39-.85-2.56-2.18-2.6-1.71.9-2.25,2.44S5.75,24,3.52,24A.56.56,0,0,1,3,23.38a.55.55,0,0,1,.58-.54c1.34,0,1.72-.9,2.25-2.45s1.12-3.26,3.34-3.19,2.76,1.91,3.21,3.39.85,2.56,2.18,2.6,1.71-.9,2.25-2.44,1.13-3.28,3.34-3.19,2.75,1.91,3.21,3.39.85,2.56,2.18,2.6,1.72-.9,2.25-2.44,1.14-3.28,3.34-3.19,2.76,1.91,3.21,3.39.85,2.56,2.17,2.6a.56.56,0,0,1,0,1.12Z"/><path class="cls-1" d="M36.46,16.1h0c-2.19-.07-2.76-1.91-3.21-3.39s-.85-2.56-2.18-2.61-1.71.9-2.24,2.44-1.13,3.26-3.34,3.19-2.75-1.91-3.21-3.39-.85-2.56-2.18-2.6-1.72.9-2.25,2.44-1.14,3.27-3.34,3.19S11.74,13.47,11.29,12s-.85-2.56-2.18-2.6-1.71.9-2.25,2.44S5.75,15.09,3.52,15A.56.56,0,0,1,3,14.45a.55.55,0,0,1,.58-.54c1.34,0,1.72-.9,2.25-2.45S6.93,8.21,9.14,8.27s2.76,1.91,3.21,3.39.85,2.56,2.18,2.6,1.71-.9,2.25-2.44,1.13-3.27,3.34-3.19,2.75,1.91,3.21,3.39.85,2.56,2.18,2.6,1.72-.9,2.25-2.44S28.9,8.92,31.09,9s2.76,1.91,3.21,3.39.85,2.56,2.17,2.6a.56.56,0,0,1,0,1.12Z"/></svg>